<svg width="296" height="70" viewBox="0 0 296 70" fill="none" xmlns="http://www.w3.org/2000/svg">
<path d="M2.55084 39V38.62L3.34884 38.316C4.15951 37.9867 4.56484 37.3407 4.56484 36.378V16.542C4.56484 15.5287 4.15951 14.8827 3.34884 14.604L2.55084 14.3V13.92H12.5828C15.2682 13.92 17.5735 14.4267 19.4988 15.44C21.4495 16.428 22.9442 17.8593 23.9828 19.734C25.0468 21.5833 25.5788 23.8127 25.5788 26.422C25.5788 29.082 25.0088 31.3493 23.8688 33.224C22.7288 35.0987 21.1328 36.53 19.0808 37.518C17.0542 38.506 14.6602 39 11.8988 39H2.55084ZM10.2648 38.24H11.8988C13.7228 38.24 15.1922 37.8853 16.3068 37.176C17.4215 36.4413 18.2322 35.2253 18.7388 33.528C19.2708 31.8053 19.5368 29.4493 19.5368 26.46C19.5368 23.4707 19.2708 21.1273 18.7388 19.43C18.2322 17.7073 17.4342 16.4913 16.3448 15.782C15.2555 15.0473 13.8242 14.68 12.0508 14.68H10.2648V38.24ZM27.1155 39V38.62L27.6855 38.468C28.1921 38.316 28.5341 38.088 28.7115 37.784C28.9141 37.48 29.0155 37.0873 29.0155 36.606V24.712C29.0155 24.1547 28.9141 23.7493 28.7115 23.496C28.5341 23.2173 28.1921 23.0273 27.6855 22.926L27.1155 22.774V22.394L33.6515 20.19L34.0315 20.57L34.3735 23.838V24.142C34.7281 23.4327 35.1841 22.7867 35.7415 22.204C36.3241 21.596 36.9575 21.102 37.6415 20.722C38.3508 20.342 39.0475 20.152 39.7315 20.152C40.6941 20.152 41.4288 20.418 41.9355 20.95C42.4421 21.482 42.6955 22.1533 42.6955 22.964C42.6955 23.8253 42.4421 24.4967 41.9355 24.978C41.4541 25.434 40.8715 25.662 40.1875 25.662C39.1235 25.662 38.1861 25.13 37.3755 24.066L37.2995 23.99C37.0461 23.6353 36.7548 23.4453 36.4255 23.42C36.0961 23.3693 35.7921 23.5213 35.5135 23.876C35.2601 24.104 35.0448 24.3827 34.8675 24.712C34.7155 25.016 34.5635 25.3707 34.4115 25.776V36.378C34.4115 37.3913 34.8548 38.0247 35.7415 38.278L36.9575 38.62V39H27.1155ZM48.6205 39.57C47.1512 39.57 45.9098 39.152 44.8965 38.316C43.9085 37.48 43.4145 36.2767 43.4145 34.706C43.4145 33.5153 44.0225 32.426 45.2385 31.438C46.4545 30.4247 48.3672 29.6647 50.9765 29.158C51.3818 29.082 51.8378 29.006 52.3445 28.93C52.8512 28.8287 53.3832 28.7273 53.9405 28.626V25.624C53.9405 23.9013 53.7252 22.698 53.2945 22.014C52.8892 21.3047 52.2432 20.95 51.3565 20.95C50.7485 20.95 50.2672 21.1527 49.9125 21.558C49.5578 21.938 49.3298 22.6093 49.2285 23.572L49.1525 23.99C49.1018 25.0793 48.8358 25.8773 48.3545 26.384C47.8732 26.8907 47.2778 27.144 46.5685 27.144C45.9098 27.144 45.3652 26.9413 44.9345 26.536C44.5038 26.1307 44.2885 25.586 44.2885 24.902C44.2885 23.8633 44.6432 22.9893 45.3525 22.28C46.0872 21.5707 47.0498 21.0387 48.2405 20.684C49.4312 20.3293 50.7232 20.152 52.1165 20.152C54.3712 20.152 56.1065 20.7093 57.3225 21.824C58.5638 22.9133 59.1845 24.6993 59.1845 27.182V35.58C59.1845 36.72 59.7165 37.29 60.7805 37.29H61.6165L61.9585 37.594C61.4772 38.202 60.9452 38.6707 60.3625 39C59.8052 39.3293 59.0072 39.494 57.9685 39.494C56.8538 39.494 55.9672 39.2407 55.3085 38.734C54.6752 38.202 54.2572 37.5053 54.0545 36.644C53.2945 37.4547 52.5092 38.1513 51.6985 38.734C50.9132 39.2913 49.8872 39.57 48.6205 39.57ZM50.9385 37.252C51.4452 37.252 51.9138 37.138 52.3445 36.91C52.8005 36.6567 53.3325 36.2767 53.9405 35.77V29.386C53.6872 29.4367 53.4338 29.4873 53.1805 29.538C52.9272 29.5887 52.6358 29.6393 52.3065 29.69C51.1412 29.994 50.2038 30.5133 49.4945 31.248C48.8105 31.9573 48.4685 32.92 48.4685 34.136C48.4685 35.1747 48.7092 35.96 49.1905 36.492C49.6718 36.9987 50.2545 37.252 50.9385 37.252ZM67.6805 39.57C66.7685 39.57 65.9958 39.2533 65.3625 38.62C64.7291 37.9867 64.4125 37.2267 64.4125 36.34C64.4125 35.4533 64.7291 34.6807 65.3625 34.022C65.9958 33.3633 66.7685 33.034 67.6805 33.034C68.5925 33.034 69.3651 33.3633 69.9985 34.022C70.6318 34.6807 70.9485 35.4533 70.9485 36.34C70.9485 37.2267 70.6318 37.9867 69.9985 38.62C69.3651 39.2533 68.5925 39.57 67.6805 39.57ZM85.7904 39.684C84.5491 39.684 83.5864 39.4433 82.9024 38.962C82.2438 38.4807 81.9144 37.8347 81.9144 37.024C81.9144 36.3147 82.1551 35.77 82.6364 35.39C83.1431 35.01 83.7258 34.82 84.3844 34.82C85.0431 34.82 85.6258 34.972 86.1324 35.276C86.6391 35.5547 87.1078 36.0487 87.5384 36.758L88.2224 37.936C88.3491 38.1133 88.5011 38.202 88.6784 38.202C88.8811 38.202 89.0204 38.088 89.0964 37.86C89.2484 37.3533 89.3498 36.6187 89.4004 35.656C89.4764 34.668 89.5144 33.4773 89.5144 32.084C89.5144 30.488 89.4764 28.436 89.4004 25.928C89.3244 23.42 89.2484 20.3293 89.1724 16.656C89.1724 15.5667 88.7671 14.8827 87.9564 14.604L87.0824 14.3V13.92H97.0384V14.3L96.2024 14.604C95.7464 14.7813 95.4298 15.022 95.2524 15.326C95.1004 15.6047 95.0244 16.01 95.0244 16.542V24.066C95.0244 26.5487 94.9104 28.6007 94.6824 30.222C94.4544 31.8433 94.0871 33.2493 93.5804 34.44C92.9471 36.1373 91.9084 37.442 90.4644 38.354C89.0458 39.2407 87.4878 39.684 85.7904 39.684ZM102.689 39.57C101.22 39.57 99.9782 39.152 98.9649 38.316C97.9769 37.48 97.4829 36.2767 97.4829 34.706C97.4829 33.5153 98.0909 32.426 99.3069 31.438C100.523 30.4247 102.436 29.6647 105.045 29.158C105.45 29.082 105.906 29.006 106.413 28.93C106.92 28.8287 107.452 28.7273 108.009 28.626V25.624C108.009 23.9013 107.794 22.698 107.363 22.014C106.958 21.3047 106.312 20.95 105.425 20.95C104.817 20.95 104.336 21.1527 103.981 21.558C103.626 21.938 103.398 22.6093 103.297 23.572L103.221 23.99C103.17 25.0793 102.904 25.8773 102.423 26.384C101.942 26.8907 101.346 27.144 100.637 27.144C99.9782 27.144 99.4335 26.9413 99.0029 26.536C98.5722 26.1307 98.3569 25.586 98.3569 24.902C98.3569 23.8633 98.7115 22.9893 99.4209 22.28C100.156 21.5707 101.118 21.0387 102.309 20.684C103.5 20.3293 104.792 20.152 106.185 20.152C108.44 20.152 110.175 20.7093 111.391 21.824C112.632 22.9133 113.253 24.6993 113.253 27.182V35.58C113.253 36.72 113.785 37.29 114.849 37.29H115.685L116.027 37.594C115.546 38.202 115.014 38.6707 114.431 39C113.874 39.3293 113.076 39.494 112.037 39.494C110.922 39.494 110.036 39.2407 109.377 38.734C108.744 38.202 108.326 37.5053 108.123 36.644C107.363 37.4547 106.578 38.1513 105.767 38.734C104.982 39.2913 103.956 39.57 102.689 39.57ZM105.007 37.252C105.514 37.252 105.982 37.138 106.413 36.91C106.869 36.6567 107.401 36.2767 108.009 35.77V29.386C107.756 29.4367 107.502 29.4873 107.249 29.538C106.996 29.5887 106.704 29.6393 106.375 29.69C105.21 29.994 104.272 30.5133 103.563 31.248C102.879 31.9573 102.537 32.92 102.537 34.136C102.537 35.1747 102.778 35.96 103.259 36.492C103.74 36.9987 104.323 37.252 105.007 37.252ZM124.579 39.114L117.853 22.964C117.498 22.1027 116.89 21.5327 116.029 21.254L115.497 21.102V20.722H125.339V21.102L124.655 21.254C123.667 21.5073 123.363 22.166 123.743 23.23L127.733 33.832L131.457 23.306C131.659 22.7993 131.71 22.3813 131.609 22.052C131.507 21.7227 131.203 21.482 130.697 21.33L129.747 21.102V20.722H135.257V21.102L134.155 21.368C133.673 21.4947 133.293 21.6847 133.015 21.938C132.761 22.1913 132.546 22.5713 132.369 23.078L126.783 39.114H124.579ZM140.777 18.176C139.916 18.176 139.181 17.91 138.573 17.378C137.99 16.8207 137.699 16.124 137.699 15.288C137.699 14.4267 137.99 13.73 138.573 13.198C139.181 12.666 139.916 12.4 140.777 12.4C141.638 12.4 142.36 12.666 142.943 13.198C143.526 13.73 143.817 14.4267 143.817 15.288C143.817 16.124 143.526 16.8207 142.943 17.378C142.36 17.91 141.638 18.176 140.777 18.176ZM136.293 39V38.62L136.825 38.468C137.332 38.316 137.674 38.088 137.851 37.784C138.054 37.48 138.155 37.0747 138.155 36.568V24.674C138.155 24.142 138.054 23.7493 137.851 23.496C137.674 23.2173 137.332 23.0273 136.825 22.926L136.293 22.812V22.432L143.247 20.19L143.627 20.57L143.513 25.966V36.606C143.513 37.1127 143.602 37.518 143.779 37.822C143.982 38.126 144.324 38.354 144.805 38.506L145.185 38.62V39H136.293ZM156.405 20.152C158.052 20.152 159.458 20.494 160.623 21.178C161.789 21.8367 162.675 22.7487 163.283 23.914C163.917 25.054 164.233 26.3587 164.233 27.828C164.233 28.1067 164.221 28.398 164.195 28.702C164.17 28.9807 164.119 29.234 164.043 29.462H152.719C152.745 32.198 153.226 34.174 154.163 35.39C155.126 36.5807 156.545 37.176 158.419 37.176C159.686 37.176 160.712 36.9733 161.497 36.568C162.283 36.1627 163.017 35.5673 163.701 34.782L164.081 35.124C163.296 36.5173 162.245 37.6067 160.927 38.392C159.635 39.1773 158.077 39.57 156.253 39.57C154.455 39.57 152.859 39.19 151.465 38.43C150.072 37.6447 148.983 36.53 148.197 35.086C147.412 33.642 147.019 31.9193 147.019 29.918C147.019 27.8407 147.475 26.08 148.387 24.636C149.299 23.1667 150.465 22.052 151.883 21.292C153.327 20.532 154.835 20.152 156.405 20.152ZM156.291 20.912C155.557 20.912 154.923 21.14 154.391 21.596C153.885 22.0267 153.479 22.812 153.175 23.952C152.897 25.0667 152.745 26.65 152.719 28.702H159.217C159.471 25.9407 159.369 23.952 158.913 22.736C158.457 21.52 157.583 20.912 156.291 20.912ZM166.127 39V38.62L166.697 38.468C167.204 38.316 167.546 38.088 167.723 37.784C167.926 37.48 168.027 37.0873 168.027 36.606V24.712C168.027 24.1547 167.926 23.7493 167.723 23.496C167.546 23.2173 167.204 23.0273 166.697 22.926L166.127 22.774V22.394L172.663 20.19L173.043 20.57L173.385 23.838V24.142C173.74 23.4327 174.196 22.7867 174.753 22.204C175.336 21.596 175.969 21.102 176.653 20.722C177.363 20.342 178.059 20.152 178.743 20.152C179.706 20.152 180.441 20.418 180.947 20.95C181.454 21.482 181.707 22.1533 181.707 22.964C181.707 23.8253 181.454 24.4967 180.947 24.978C180.466 25.434 179.883 25.662 179.199 25.662C178.135 25.662 177.198 25.13 176.387 24.066L176.311 23.99C176.058 23.6353 175.767 23.4453 175.437 23.42C175.108 23.3693 174.804 23.5213 174.525 23.876C174.272 24.104 174.057 24.3827 173.879 24.712C173.727 25.016 173.575 25.3707 173.423 25.776V36.378C173.423 37.3913 173.867 38.0247 174.753 38.278L175.969 38.62V39H166.127ZM187.632 39.57C186.163 39.57 184.922 39.152 183.908 38.316C182.92 37.48 182.426 36.2767 182.426 34.706C182.426 33.5153 183.034 32.426 184.25 31.438C185.466 30.4247 187.379 29.6647 189.988 29.158C190.394 29.082 190.85 29.006 191.356 28.93C191.863 28.8287 192.395 28.7273 192.952 28.626V25.624C192.952 23.9013 192.737 22.698 192.306 22.014C191.901 21.3047 191.255 20.95 190.368 20.95C189.76 20.95 189.279 21.1527 188.924 21.558C188.57 21.938 188.342 22.6093 188.24 23.572L188.164 23.99C188.114 25.0793 187.848 25.8773 187.366 26.384C186.885 26.8907 186.29 27.144 185.58 27.144C184.922 27.144 184.377 26.9413 183.946 26.536C183.516 26.1307 183.3 25.586 183.3 24.902C183.3 23.8633 183.655 22.9893 184.364 22.28C185.099 21.5707 186.062 21.0387 187.252 20.684C188.443 20.3293 189.735 20.152 191.128 20.152C193.383 20.152 195.118 20.7093 196.334 21.824C197.576 22.9133 198.196 24.6993 198.196 27.182V35.58C198.196 36.72 198.728 37.29 199.792 37.29H200.628L200.97 37.594C200.489 38.202 199.957 38.6707 199.374 39C198.817 39.3293 198.019 39.494 196.98 39.494C195.866 39.494 194.979 39.2407 194.32 38.734C193.687 38.202 193.269 37.5053 193.066 36.644C192.306 37.4547 191.521 38.1513 190.71 38.734C189.925 39.2913 188.899 39.57 187.632 39.57ZM189.95 37.252C190.457 37.252 190.926 37.138 191.356 36.91C191.812 36.6567 192.344 36.2767 192.952 35.77V29.386C192.699 29.4367 192.446 29.4873 192.192 29.538C191.939 29.5887 191.648 29.6393 191.318 29.69C190.153 29.994 189.216 30.5133 188.506 31.248C187.822 31.9573 187.48 32.92 187.48 34.136C187.48 35.1747 187.721 35.96 188.202 36.492C188.684 36.9987 189.266 37.252 189.95 37.252ZM210.598 39V38.62L211.852 38.24C212.308 38.1133 212.637 37.8727 212.84 37.518C213.042 37.138 213.144 36.6947 213.144 36.188V17.91C212.865 17.302 212.637 16.846 212.46 16.542C212.308 16.238 212.13 15.9847 211.928 15.782C211.725 15.554 211.446 15.2753 211.092 14.946L210.446 14.3V13.92H217.172L229.788 31.134V16.808C229.788 16.3013 229.699 15.8453 229.522 15.44C229.37 15.0347 229.04 14.7687 228.534 14.642L227.28 14.3V13.92H232.714V14.3L231.688 14.642C231.232 14.794 230.953 15.06 230.852 15.44C230.75 15.82 230.7 16.2633 230.7 16.77V39.114H228.572L214.056 19.164V36.188C214.056 36.6947 214.132 37.1253 214.284 37.48C214.436 37.8347 214.752 38.088 215.234 38.24L216.374 38.62V39H210.598ZM239.177 39.57C237.708 39.57 236.466 39.152 235.453 38.316C234.465 37.48 233.971 36.2767 233.971 34.706C233.971 33.5153 234.579 32.426 235.795 31.438C237.011 30.4247 238.924 29.6647 241.533 29.158C241.938 29.082 242.394 29.006 242.901 28.93C243.408 28.8287 243.94 28.7273 244.497 28.626V25.624C244.497 23.9013 244.282 22.698 243.851 22.014C243.446 21.3047 242.8 20.95 241.913 20.95C241.305 20.95 240.824 21.1527 240.469 21.558C240.114 21.938 239.886 22.6093 239.785 23.572L239.709 23.99C239.658 25.0793 239.392 25.8773 238.911 26.384C238.43 26.8907 237.834 27.144 237.125 27.144C236.466 27.144 235.922 26.9413 235.491 26.536C235.06 26.1307 234.845 25.586 234.845 24.902C234.845 23.8633 235.2 22.9893 235.909 22.28C236.644 21.5707 237.606 21.0387 238.797 20.684C239.988 20.3293 241.28 20.152 242.673 20.152C244.928 20.152 246.663 20.7093 247.879 21.824C249.12 22.9133 249.741 24.6993 249.741 27.182V35.58C249.741 36.72 250.273 37.29 251.337 37.29H252.173L252.515 37.594C252.034 38.202 251.502 38.6707 250.919 39C250.362 39.3293 249.564 39.494 248.525 39.494C247.41 39.494 246.524 39.2407 245.865 38.734C245.232 38.202 244.814 37.5053 244.611 36.644C243.851 37.4547 243.066 38.1513 242.255 38.734C241.47 39.2913 240.444 39.57 239.177 39.57ZM241.495 37.252C242.002 37.252 242.47 37.138 242.901 36.91C243.357 36.6567 243.889 36.2767 244.497 35.77V29.386C244.244 29.4367 243.99 29.4873 243.737 29.538C243.484 29.5887 243.192 29.6393 242.863 29.69C241.698 29.994 240.76 30.5133 240.051 31.248C239.367 31.9573 239.025 32.92 239.025 34.136C239.025 35.1747 239.266 35.96 239.747 36.492C240.228 36.9987 240.811 37.252 241.495 37.252ZM253.411 39V38.62L253.867 38.468C254.779 38.164 255.235 37.5307 255.235 36.568V16.238C255.235 15.7313 255.134 15.3513 254.931 15.098C254.728 14.8193 254.374 14.6167 253.867 14.49L253.373 14.376V13.996L260.327 12.362L260.783 12.704L260.631 18.024V31.02C260.631 31.9573 260.631 32.8947 260.631 33.832C260.656 34.744 260.669 35.656 260.669 36.568C260.669 37.0747 260.77 37.4927 260.973 37.822C261.176 38.126 261.518 38.354 261.999 38.506L262.493 38.62V39H253.411ZM264.284 39V38.62L264.74 38.468C265.652 38.164 266.108 37.5307 266.108 36.568V16.238C266.108 15.7313 266.007 15.3513 265.804 15.098C265.601 14.8193 265.247 14.6167 264.74 14.49L264.246 14.376V13.996L271.2 12.362L271.656 12.704L271.504 18.024V31.02C271.504 31.9573 271.504 32.8947 271.504 33.832C271.529 34.744 271.542 35.656 271.542 36.568C271.542 37.0747 271.643 37.4927 271.846 37.822C272.049 38.126 272.391 38.354 272.872 38.506L273.366 38.62V39H264.284ZM278.168 48.12C277.155 48.12 276.344 47.8667 275.736 47.36C275.153 46.8533 274.862 46.2073 274.862 45.422C274.862 44.7127 275.115 44.1427 275.622 43.712C276.129 43.2813 276.699 43.066 277.332 43.066C277.965 43.066 278.497 43.1927 278.928 43.446C279.359 43.7247 279.739 44.1173 280.068 44.624L280.334 44.928C280.891 45.688 281.449 45.6753 282.006 44.89C282.234 44.51 282.487 44.0033 282.766 43.37C283.07 42.762 283.412 41.9387 283.792 40.9L276.42 23.268C276.243 22.7867 276.053 22.4067 275.85 22.128C275.647 21.824 275.318 21.5707 274.862 21.368L274.178 21.102V20.722H283.64V21.064L282.88 21.368C282.323 21.5453 282.031 21.8367 282.006 22.242C282.006 22.622 282.107 23.1033 282.31 23.686L286.262 33.946L290.024 23.572C290.227 22.9893 290.303 22.508 290.252 22.128C290.201 21.7227 289.885 21.444 289.302 21.292L288.504 21.102V20.722H293.786V21.102L292.95 21.368C292.367 21.5453 291.962 21.7987 291.734 22.128C291.506 22.4573 291.291 22.9133 291.088 23.496L284.97 40.178C283.982 42.838 282.994 44.8267 282.006 46.144C281.018 47.4613 279.739 48.12 278.168 48.12Z" fill="black"/>
<path d="M11.0066 56.704C11.0066 57.368 10.9226 57.972 10.7546 58.516C10.5946 59.052 10.3466 59.516 10.0106 59.908C9.68264 60.3 9.26664 60.6 8.76264 60.808C8.26664 61.016 7.68664 61.12 7.02264 61.12C6.34264 61.12 5.75064 61.016 5.24664 60.808C4.75064 60.592 4.33464 60.292 3.99864 59.908C3.67064 59.516 3.42664 59.048 3.26664 58.504C3.10664 57.96 3.02664 57.356 3.02664 56.692C3.02664 55.812 3.17064 55.044 3.45864 54.388C3.74664 53.732 4.18664 53.22 4.77864 52.852C5.37864 52.484 6.13064 52.3 7.03464 52.3C7.91464 52.3 8.64664 52.484 9.23064 52.852C9.82264 53.212 10.2666 53.724 10.5626 54.388C10.8586 55.044 11.0066 55.816 11.0066 56.704ZM4.39464 56.704C4.39464 57.392 4.48664 57.984 4.67064 58.48C4.85464 58.968 5.14264 59.348 5.53464 59.62C5.92664 59.884 6.42264 60.016 7.02264 60.016C7.63064 60.016 8.12664 59.884 8.51064 59.62C8.89464 59.348 9.17864 58.968 9.36264 58.48C9.54664 57.984 9.63864 57.392 9.63864 56.704C9.63864 55.672 9.43064 54.868 9.01464 54.292C8.60664 53.708 7.94664 53.416 7.03464 53.416C6.42664 53.416 5.92664 53.548 5.53464 53.812C5.14264 54.076 4.85464 54.452 4.67064 54.94C4.48664 55.428 4.39464 56.016 4.39464 56.704ZM19.8045 56.632C19.8045 57.592 19.6245 58.396 19.2645 59.044C18.9045 59.692 18.3845 60.18 17.7045 60.508C17.0325 60.836 16.2205 61 15.2685 61H12.8685V52.432H15.5205C16.3925 52.432 17.1485 52.592 17.7885 52.912C18.4285 53.232 18.9245 53.704 19.2765 54.328C19.6285 54.944 19.8045 55.712 19.8045 56.632ZM18.4485 56.668C18.4485 55.948 18.3325 55.356 18.1005 54.892C17.8685 54.428 17.5245 54.084 17.0685 53.86C16.6205 53.636 16.0765 53.524 15.4365 53.524H14.1645V59.908H15.2085C16.2885 59.908 17.0965 59.636 17.6325 59.092C18.1765 58.548 18.4485 57.74 18.4485 56.668ZM29.2293 56.704C29.2293 57.368 29.1453 57.972 28.9773 58.516C28.8173 59.052 28.5693 59.516 28.2333 59.908C27.9053 60.3 27.4893 60.6 26.9853 60.808C26.4893 61.016 25.9093 61.12 25.2453 61.12C24.5653 61.12 23.9733 61.016 23.4693 60.808C22.9733 60.592 22.5573 60.292 22.2213 59.908C21.8933 59.516 21.6493 59.048 21.4893 58.504C21.3293 57.96 21.2493 57.356 21.2493 56.692C21.2493 55.812 21.3933 55.044 21.6813 54.388C21.9693 53.732 22.4093 53.22 23.0013 52.852C23.6013 52.484 24.3533 52.3 25.2573 52.3C26.1373 52.3 26.8693 52.484 27.4533 52.852C28.0453 53.212 28.4893 53.724 28.7853 54.388C29.0813 55.044 29.2293 55.816 29.2293 56.704ZM22.6173 56.704C22.6173 57.392 22.7093 57.984 22.8933 58.48C23.0773 58.968 23.3653 59.348 23.7573 59.62C24.1493 59.884 24.6453 60.016 25.2453 60.016C25.8533 60.016 26.3493 59.884 26.7333 59.62C27.1173 59.348 27.4013 58.968 27.5853 58.48C27.7693 57.984 27.8613 57.392 27.8613 56.704C27.8613 55.672 27.6533 54.868 27.2373 54.292C26.8293 53.708 26.1693 53.416 25.2573 53.416C24.6493 53.416 24.1493 53.548 23.7573 53.812C23.3653 54.076 23.0773 54.452 22.8933 54.94C22.7093 55.428 22.6173 56.016 22.6173 56.704ZM38.1232 61H36.5512L32.2192 54.076H32.1712C32.1792 54.236 32.1872 54.408 32.1952 54.592C32.2112 54.776 32.2232 54.972 32.2312 55.18C32.2392 55.38 32.2472 55.588 32.2552 55.804C32.2632 56.012 32.2672 56.224 32.2672 56.44V61H31.0912V52.432H32.6512L36.9712 59.32H37.0072C36.9992 59.2 36.9912 59.052 36.9832 58.876C36.9752 58.692 36.9672 58.496 36.9592 58.288C36.9592 58.08 36.9552 57.868 36.9472 57.652C36.9392 57.436 36.9312 57.232 36.9232 57.04V52.432H38.1232V61ZM43.2876 61H41.9916V53.548H39.4236V52.432H45.8556V53.548H43.2876V61ZM54.4949 56.704C54.4949 57.368 54.4109 57.972 54.2429 58.516C54.0829 59.052 53.8349 59.516 53.4989 59.908C53.1709 60.3 52.7549 60.6 52.2509 60.808C51.7549 61.016 51.1749 61.12 50.5109 61.12C49.8309 61.12 49.2389 61.016 48.7349 60.808C48.2389 60.592 47.8229 60.292 47.4869 59.908C47.1589 59.516 46.9149 59.048 46.7549 58.504C46.5949 57.96 46.5149 57.356 46.5149 56.692C46.5149 55.812 46.6589 55.044 46.9469 54.388C47.2349 53.732 47.6749 53.22 48.2669 52.852C48.8669 52.484 49.6189 52.3 50.5229 52.3C51.4029 52.3 52.1349 52.484 52.7189 52.852C53.3109 53.212 53.7549 53.724 54.0509 54.388C54.3469 55.044 54.4949 55.816 54.4949 56.704ZM47.8829 56.704C47.8829 57.392 47.9749 57.984 48.1589 58.48C48.3429 58.968 48.6309 59.348 49.0229 59.62C49.4149 59.884 49.9109 60.016 50.5109 60.016C51.1189 60.016 51.6149 59.884 51.9989 59.62C52.3829 59.348 52.6669 58.968 52.8509 58.48C53.0349 57.984 53.1269 57.392 53.1269 56.704C53.1269 55.672 52.9189 54.868 52.5029 54.292C52.0949 53.708 51.4349 53.416 50.5229 53.416C49.9149 53.416 49.4149 53.548 49.0229 53.812C48.6309 54.076 48.3429 54.452 48.1589 54.94C47.9749 55.428 47.8829 56.016 47.8829 56.704ZM56.3568 61V52.432H57.6528V59.884H61.3128V61H56.3568ZM70.116 56.704C70.116 57.368 70.032 57.972 69.864 58.516C69.704 59.052 69.456 59.516 69.12 59.908C68.792 60.3 68.376 60.6 67.872 60.808C67.376 61.016 66.796 61.12 66.132 61.12C65.452 61.12 64.86 61.016 64.356 60.808C63.86 60.592 63.444 60.292 63.108 59.908C62.78 59.516 62.536 59.048 62.376 58.504C62.216 57.96 62.136 57.356 62.136 56.692C62.136 55.812 62.28 55.044 62.568 54.388C62.856 53.732 63.296 53.22 63.888 52.852C64.488 52.484 65.24 52.3 66.144 52.3C67.024 52.3 67.756 52.484 68.34 52.852C68.932 53.212 69.376 53.724 69.672 54.388C69.968 55.044 70.116 55.816 70.116 56.704ZM63.504 56.704C63.504 57.392 63.596 57.984 63.78 58.48C63.964 58.968 64.252 59.348 64.644 59.62C65.036 59.884 65.532 60.016 66.132 60.016C66.74 60.016 67.236 59.884 67.62 59.62C68.004 59.348 68.288 58.968 68.472 58.48C68.656 57.984 68.748 57.392 68.748 56.704C68.748 55.672 68.54 54.868 68.124 54.292C67.716 53.708 67.056 53.416 66.144 53.416C65.536 53.416 65.036 53.548 64.644 53.812C64.252 54.076 63.964 54.452 63.78 54.94C63.596 55.428 63.504 56.016 63.504 56.704ZM75.5539 56.392H78.6499V60.664C78.1939 60.816 77.7259 60.928 77.2459 61C76.7739 61.08 76.2339 61.12 75.6259 61.12C74.7539 61.12 74.0139 60.944 73.4059 60.592C72.8059 60.24 72.3459 59.736 72.0259 59.08C71.7139 58.424 71.5579 57.636 71.5579 56.716C71.5579 55.82 71.7339 55.044 72.0859 54.388C72.4379 53.732 72.9419 53.224 73.5979 52.864C74.2619 52.496 75.0659 52.312 76.0099 52.312C76.4819 52.312 76.9339 52.36 77.3659 52.456C77.7979 52.544 78.1979 52.668 78.5659 52.828L78.0979 53.908C77.8019 53.772 77.4699 53.66 77.1019 53.572C76.7419 53.476 76.3619 53.428 75.9619 53.428C75.3299 53.428 74.7819 53.564 74.3179 53.836C73.8619 54.1 73.5099 54.48 73.2619 54.976C73.0219 55.464 72.9019 56.048 72.9019 56.728C72.9019 57.368 73.0019 57.936 73.2019 58.432C73.4019 58.928 73.7179 59.316 74.1499 59.596C74.5819 59.876 75.1459 60.016 75.8419 60.016C76.0739 60.016 76.2779 60.008 76.4539 59.992C76.6299 59.968 76.7899 59.944 76.9339 59.92C77.0859 59.888 77.2299 59.86 77.3659 59.836V57.508H75.5539V56.392ZM83.3366 61H80.0126V60.256L81.0326 59.956V53.488L80.0126 53.176V52.432H83.3366V53.176L82.3286 53.488V59.956L83.3366 60.256V61ZM83.6846 49.828C83.5966 49.94 83.4766 50.076 83.3246 50.236C83.1806 50.396 83.0166 50.564 82.8326 50.74C82.6566 50.908 82.4806 51.072 82.3046 51.232C82.1286 51.384 81.9686 51.516 81.8246 51.628H80.9846V51.484C81.1046 51.332 81.2406 51.152 81.3926 50.944C81.5446 50.736 81.6926 50.524 81.8366 50.308C81.9806 50.084 82.1006 49.884 82.1966 49.708H83.6846V49.828ZM90.2788 61L89.3668 58.528H86.0548L85.1428 61H83.7988L87.0508 52.396H88.3948L91.6348 61H90.2788ZM88.1428 54.988C88.1188 54.9 88.0748 54.768 88.0108 54.592C87.9548 54.408 87.8988 54.224 87.8428 54.04C87.7868 53.848 87.7428 53.692 87.7108 53.572C87.6708 53.732 87.6228 53.908 87.5668 54.1C87.5188 54.284 87.4708 54.456 87.4228 54.616C87.3748 54.768 87.3348 54.892 87.3028 54.988L86.4388 57.4H89.0068L88.1428 54.988ZM99.4836 56.392H102.58V60.664C102.124 60.816 101.656 60.928 101.176 61C100.704 61.08 100.164 61.12 99.5556 61.12C98.6836 61.12 97.9436 60.944 97.3356 60.592C96.7356 60.24 96.2756 59.736 95.9556 59.08C95.6436 58.424 95.4876 57.636 95.4876 56.716C95.4876 55.82 95.6636 55.044 96.0156 54.388C96.3676 53.732 96.8716 53.224 97.5276 52.864C98.1916 52.496 98.9956 52.312 99.9396 52.312C100.412 52.312 100.864 52.36 101.296 52.456C101.728 52.544 102.128 52.668 102.496 52.828L102.028 53.908C101.732 53.772 101.4 53.66 101.032 53.572C100.672 53.476 100.292 53.428 99.8916 53.428C99.2596 53.428 98.7116 53.564 98.2476 53.836C97.7916 54.1 97.4396 54.48 97.1916 54.976C96.9516 55.464 96.8316 56.048 96.8316 56.728C96.8316 57.368 96.9316 57.936 97.1316 58.432C97.3316 58.928 97.6476 59.316 98.0796 59.596C98.5116 59.876 99.0756 60.016 99.7716 60.016C100.004 60.016 100.208 60.008 100.384 59.992C100.56 59.968 100.72 59.944 100.864 59.92C101.016 59.888 101.16 59.86 101.296 59.836V57.508H99.4836V56.392ZM109.45 61H104.626V52.432H109.45V53.536H105.922V55.984H109.234V57.076H105.922V59.884H109.45V61ZM118.338 61H116.766L112.434 54.076H112.386C112.394 54.236 112.402 54.408 112.41 54.592C112.426 54.776 112.438 54.972 112.446 55.18C112.454 55.38 112.462 55.588 112.47 55.804C112.478 56.012 112.482 56.224 112.482 56.44V61H111.306V52.432H112.866L117.186 59.32H117.222C117.214 59.2 117.206 59.052 117.198 58.876C117.19 58.692 117.182 58.496 117.174 58.288C117.174 58.08 117.17 57.868 117.162 57.652C117.154 57.436 117.146 57.232 117.138 57.04V52.432H118.338V61ZM125.446 61H120.622V52.432H125.446V53.536H121.918V55.984H125.23V57.076H121.918V59.884H125.446V61ZM129.702 52.432C130.438 52.432 131.042 52.524 131.514 52.708C131.986 52.892 132.338 53.168 132.57 53.536C132.802 53.896 132.918 54.352 132.918 54.904C132.918 55.344 132.834 55.716 132.666 56.02C132.506 56.316 132.298 56.56 132.042 56.752C131.786 56.936 131.518 57.084 131.238 57.196L133.638 61H132.15L130.086 57.532H128.598V61H127.302V52.432H129.702ZM129.618 53.536H128.598V56.452H129.678C130.118 56.452 130.478 56.396 130.758 56.284C131.046 56.172 131.254 56.004 131.382 55.78C131.518 55.556 131.586 55.28 131.586 54.952C131.586 54.608 131.514 54.336 131.37 54.136C131.234 53.928 131.018 53.776 130.722 53.68C130.434 53.584 130.066 53.536 129.618 53.536ZM140.236 61L139.324 58.528H136.012L135.1 61H133.756L137.008 52.396H138.352L141.592 61H140.236ZM138.1 54.988C138.076 54.9 138.032 54.768 137.968 54.592C137.912 54.408 137.856 54.224 137.8 54.04C137.744 53.848 137.7 53.692 137.668 53.572C137.628 53.732 137.58 53.908 137.524 54.1C137.476 54.284 137.428 54.456 137.38 54.616C137.332 54.768 137.292 54.892 137.26 54.988L136.396 57.4H138.964L138.1 54.988ZM142.747 61V52.432H144.043V59.884H147.703V61H142.747ZM154.662 56.44L156.762 52.432H158.154L155.298 57.676V61H154.014V57.724L151.158 52.432H152.562L154.662 56.44ZM164.811 52.432C165.547 52.432 166.151 52.524 166.623 52.708C167.095 52.892 167.447 53.168 167.679 53.536C167.911 53.896 168.027 54.352 168.027 54.904C168.027 55.344 167.943 55.716 167.775 56.02C167.615 56.316 167.407 56.56 167.151 56.752C166.895 56.936 166.627 57.084 166.347 57.196L168.747 61H167.259L165.195 57.532H163.707V61H162.411V52.432H164.811ZM164.727 53.536H163.707V56.452H164.787C165.227 56.452 165.587 56.396 165.867 56.284C166.155 56.172 166.363 56.004 166.491 55.78C166.627 55.556 166.695 55.28 166.695 54.952C166.695 54.608 166.623 54.336 166.479 54.136C166.343 53.928 166.127 53.776 165.831 53.68C165.543 53.584 165.175 53.536 164.727 53.536ZM174.829 61H170.005V52.432H174.829V53.536H171.301V55.984H174.613V57.076H171.301V59.884H174.829V61ZM183.369 61H182.073V57.088H177.981V61H176.685V52.432H177.981V55.984H182.073V52.432H183.369V61ZM191.001 61L190.089 58.528H186.777L185.865 61H184.521L187.773 52.396H189.117L192.357 61H191.001ZM188.865 54.988C188.841 54.9 188.797 54.768 188.733 54.592C188.677 54.408 188.621 54.224 188.565 54.04C188.509 53.848 188.465 53.692 188.433 53.572C188.393 53.732 188.345 53.908 188.289 54.1C188.241 54.284 188.193 54.456 188.145 54.616C188.097 54.768 188.057 54.892 188.025 54.988L187.161 57.4H189.729L188.865 54.988ZM196.021 52.432C196.749 52.432 197.357 52.5 197.845 52.636C198.341 52.772 198.713 53 198.961 53.32C199.217 53.632 199.345 54.048 199.345 54.568C199.345 54.904 199.285 55.204 199.165 55.468C199.045 55.724 198.869 55.94 198.637 56.116C198.413 56.284 198.133 56.396 197.797 56.452V56.512C198.141 56.568 198.449 56.672 198.721 56.824C198.993 56.968 199.209 57.18 199.369 57.46C199.529 57.74 199.609 58.104 199.609 58.552C199.609 59.072 199.485 59.516 199.237 59.884C198.997 60.244 198.649 60.52 198.193 60.712C197.745 60.904 197.209 61 196.585 61H193.513V52.432H196.021ZM196.237 56.008C196.909 56.008 197.369 55.9 197.617 55.684C197.873 55.468 198.001 55.148 198.001 54.724C198.001 54.292 197.849 53.984 197.545 53.8C197.241 53.616 196.757 53.524 196.093 53.524H194.809V56.008H196.237ZM194.809 57.064V59.92H196.381C197.077 59.92 197.561 59.784 197.833 59.512C198.105 59.24 198.241 58.88 198.241 58.432C198.241 58.16 198.181 57.92 198.061 57.712C197.941 57.504 197.737 57.344 197.449 57.232C197.169 57.12 196.785 57.064 196.297 57.064H194.809ZM204.028 61H200.704V60.256L201.724 59.956V53.488L200.704 53.176V52.432H204.028V53.176L203.02 53.488V59.956L204.028 60.256V61ZM205.63 61V52.432H206.926V59.884H210.586V61H205.63ZM214.704 61H211.38V60.256L212.4 59.956V53.488L211.38 53.176V52.432H214.704V53.176L213.696 53.488V59.956L214.704 60.256V61ZM219.186 61H217.89V53.548H215.322V52.432H221.754V53.548H219.186V61ZM227.564 61L226.652 58.528H223.34L222.428 61H221.084L224.336 52.396H225.68L228.92 61H227.564ZM225.428 54.988C225.404 54.9 225.36 54.768 225.296 54.592C225.24 54.408 225.184 54.224 225.128 54.04C225.072 53.848 225.028 53.692 224.996 53.572C224.956 53.732 224.908 53.908 224.852 54.1C224.804 54.284 224.756 54.456 224.708 54.616C224.66 54.768 224.62 54.892 224.588 54.988L223.724 57.4H226.292L225.428 54.988ZM233.501 53.428C233.077 53.428 232.697 53.504 232.361 53.656C232.025 53.8 231.737 54.016 231.497 54.304C231.265 54.592 231.085 54.94 230.957 55.348C230.837 55.756 230.777 56.216 230.777 56.728C230.777 57.4 230.877 57.984 231.077 58.48C231.277 58.968 231.577 59.344 231.977 59.608C232.377 59.872 232.881 60.004 233.489 60.004C233.857 60.004 234.209 59.972 234.545 59.908C234.889 59.836 235.237 59.744 235.589 59.632V60.748C235.253 60.876 234.909 60.968 234.557 61.024C234.205 61.088 233.797 61.12 233.333 61.12C232.461 61.12 231.733 60.94 231.149 60.58C230.573 60.22 230.141 59.708 229.853 59.044C229.565 58.38 229.421 57.604 229.421 56.716C229.421 56.068 229.509 55.476 229.685 54.94C229.869 54.396 230.133 53.928 230.477 53.536C230.821 53.144 231.245 52.844 231.749 52.636C232.261 52.42 232.849 52.312 233.513 52.312C233.945 52.312 234.369 52.36 234.785 52.456C235.201 52.544 235.577 52.672 235.913 52.84L235.433 53.92C235.153 53.792 234.849 53.68 234.521 53.584C234.201 53.48 233.861 53.428 233.501 53.428ZM240.075 61H236.751V60.256L237.771 59.956V53.488L236.751 53.176V52.432H240.075V53.176L239.067 53.488V59.956L240.075 60.256V61ZM249.237 56.704C249.237 57.368 249.153 57.972 248.985 58.516C248.825 59.052 248.577 59.516 248.241 59.908C247.913 60.3 247.497 60.6 246.993 60.808C246.497 61.016 245.917 61.12 245.253 61.12C244.573 61.12 243.981 61.016 243.477 60.808C242.981 60.592 242.565 60.292 242.229 59.908C241.901 59.516 241.657 59.048 241.497 58.504C241.337 57.96 241.257 57.356 241.257 56.692C241.257 55.812 241.401 55.044 241.689 54.388C241.977 53.732 242.417 53.22 243.009 52.852C243.609 52.484 244.361 52.3 245.265 52.3C246.145 52.3 246.877 52.484 247.461 52.852C248.053 53.212 248.497 53.724 248.793 54.388C249.089 55.044 249.237 55.816 249.237 56.704ZM242.625 56.704C242.625 57.392 242.717 57.984 242.901 58.48C243.085 58.968 243.373 59.348 243.765 59.62C244.157 59.884 244.653 60.016 245.253 60.016C245.861 60.016 246.357 59.884 246.741 59.62C247.125 59.348 247.409 58.968 247.593 58.48C247.777 57.984 247.869 57.392 247.869 56.704C247.869 55.672 247.661 54.868 247.245 54.292C246.837 53.708 246.177 53.416 245.265 53.416C244.657 53.416 244.157 53.548 243.765 53.812C243.373 54.076 243.085 54.452 242.901 54.94C242.717 55.428 242.625 56.016 242.625 56.704ZM247.257 49.828C247.169 49.94 247.049 50.076 246.897 50.236C246.753 50.396 246.589 50.564 246.405 50.74C246.229 50.908 246.053 51.072 245.877 51.232C245.701 51.384 245.541 51.516 245.397 51.628H244.557V51.484C244.677 51.332 244.813 51.152 244.965 50.944C245.117 50.736 245.265 50.524 245.409 50.308C245.553 50.084 245.673 49.884 245.769 49.708H247.257V49.828ZM258.131 61H256.559L252.227 54.076H252.179C252.187 54.236 252.195 54.408 252.203 54.592C252.219 54.776 252.231 54.972 252.239 55.18C252.247 55.38 252.255 55.588 252.263 55.804C252.271 56.012 252.275 56.224 252.275 56.44V61H251.099V52.432H252.659L256.979 59.32H257.015C257.007 59.2 256.999 59.052 256.991 58.876C256.983 58.692 256.975 58.496 256.967 58.288C256.967 58.08 256.963 57.868 256.955 57.652C256.947 57.436 256.939 57.232 256.931 57.04V52.432H258.131V61ZM271.093 56.704C271.093 57.368 271.009 57.972 270.841 58.516C270.681 59.052 270.433 59.516 270.097 59.908C269.769 60.3 269.353 60.6 268.849 60.808C268.353 61.016 267.773 61.12 267.109 61.12C266.429 61.12 265.837 61.016 265.333 60.808C264.837 60.592 264.421 60.292 264.085 59.908C263.757 59.516 263.513 59.048 263.353 58.504C263.193 57.96 263.113 57.356 263.113 56.692C263.113 55.812 263.257 55.044 263.545 54.388C263.833 53.732 264.273 53.22 264.865 52.852C265.465 52.484 266.217 52.3 267.121 52.3C268.001 52.3 268.733 52.484 269.317 52.852C269.909 53.212 270.353 53.724 270.649 54.388C270.945 55.044 271.093 55.816 271.093 56.704ZM264.481 56.704C264.481 57.392 264.573 57.984 264.757 58.48C264.941 58.968 265.229 59.348 265.621 59.62C266.013 59.884 266.509 60.016 267.109 60.016C267.717 60.016 268.213 59.884 268.597 59.62C268.981 59.348 269.265 58.968 269.449 58.48C269.633 57.984 269.725 57.392 269.725 56.704C269.725 55.672 269.517 54.868 269.101 54.292C268.693 53.708 268.033 53.416 267.121 53.416C266.513 53.416 266.013 53.548 265.621 53.812C265.229 54.076 264.941 54.452 264.757 54.94C264.573 55.428 264.481 56.016 264.481 56.704ZM275.354 52.432C276.09 52.432 276.694 52.524 277.166 52.708C277.638 52.892 277.99 53.168 278.222 53.536C278.454 53.896 278.57 54.352 278.57 54.904C278.57 55.344 278.486 55.716 278.318 56.02C278.158 56.316 277.95 56.56 277.694 56.752C277.438 56.936 277.17 57.084 276.89 57.196L279.29 61H277.802L275.738 57.532H274.25V61H272.954V52.432H275.354ZM275.27 53.536H274.25V56.452H275.33C275.77 56.452 276.13 56.396 276.41 56.284C276.698 56.172 276.906 56.004 277.034 55.78C277.17 55.556 277.238 55.28 277.238 54.952C277.238 54.608 277.166 54.336 277.022 54.136C276.886 53.928 276.67 53.776 276.374 53.68C276.086 53.584 275.718 53.536 275.27 53.536ZM285.888 61L284.976 58.528H281.664L280.752 61H279.408L282.66 52.396H284.004L287.244 61H285.888ZM283.752 54.988C283.728 54.9 283.684 54.768 283.62 54.592C283.564 54.408 283.508 54.224 283.452 54.04C283.396 53.848 283.352 53.692 283.32 53.572C283.28 53.732 283.232 53.908 283.176 54.1C283.128 54.284 283.08 54.456 283.032 54.616C282.984 54.768 282.944 54.892 282.912 54.988L282.048 57.4H284.616L283.752 54.988ZM288.4 61V52.432H289.696V59.884H293.356V61H288.4Z" fill="#286A4E"/>
</svg>
